<svg width="493" height="238" viewBox="0 0 493 238" fill="none" xmlns="http://www.w3.org/2000/svg">
<path d="M144.743 192.564L107.203 189.939L109.899 151.377L13.1116 144.609L15.3617 112.432L96.4639 9.55064L137.58 12.4257L58.0453 114.903L112.185 118.689L115.257 74.7644L152.797 77.3895L149.725 121.314L177.051 123.225L174.765 155.913L147.44 154.002L144.743 192.564ZM240.375 202.331C185.98 198.527 159.576 154.081 163.076 104.027C166.576 53.9736 198.909 13.6348 253.304 17.4385C307.699 21.2421 334.103 65.6883 330.603 115.742C327.103 165.796 294.77 206.135 240.375 202.331ZM242.786 167.855C272.409 169.927 289.625 143.928 291.786 113.028C293.946 82.1271 280.517 53.9858 250.893 51.9143C221.269 49.8428 204.054 75.8412 201.893 106.742C199.732 137.642 213.162 165.784 242.786 167.855ZM444.95 213.557L407.41 210.932L410.106 172.37L313.319 165.602L315.569 133.424L396.671 30.5432L437.786 33.4182L358.252 135.896L412.392 139.682L415.464 95.7569L453.004 98.382L449.932 142.307L477.258 144.218L474.972 176.906L447.647 174.995L444.95 213.557Z" fill="black"/>
<path d="M1.01803 192.779L478.967 226.2L478.163 237.692L0.21444 204.271L1.01803 192.779Z" fill="#53C2FD"/>
</svg>
