<svg width="30" height="31" viewBox="0 0 30 31" fill="none" xmlns="http://www.w3.org/2000/svg">
<path fill-rule="evenodd" clip-rule="evenodd" d="M6.66667 3.6965C5.76667 3.73484 5.12 3.81984 4.54833 4.01317C3.57064 4.34053 2.6822 4.8902 1.95286 5.61897C1.22351 6.34774 0.673136 7.23574 0.345 8.21317C2.48353e-08 9.24817 0 10.5248 0 13.0815C0 13.2398 1.86265e-08 13.3198 0.0216667 13.3832C0.0421281 13.4445 0.0765725 13.5002 0.122276 13.5459C0.16798 13.5916 0.223689 13.626 0.285 13.6465C0.348333 13.6682 0.428333 13.6682 0.588333 13.6682H29.4117C29.5717 13.6682 29.6517 13.6682 29.715 13.6465C29.7763 13.626 29.832 13.5916 29.8777 13.5459C29.9234 13.5002 29.9579 13.4445 29.9783 13.3832C30 13.3182 30 13.2382 30 13.0782C30 10.5232 30 9.24484 29.655 8.21484C29.3273 7.23679 28.7771 6.34812 28.0478 5.61875C27.3184 4.88938 26.4297 4.3392 25.4517 4.0115C24.88 3.81984 24.2317 3.73484 23.3333 3.6965V7.83317C23.3333 8.49621 23.0699 9.1321 22.6011 9.60094C22.1323 10.0698 21.4964 10.3332 20.8333 10.3332C20.1703 10.3332 19.5344 10.0698 19.0656 9.60094C18.5967 9.1321 18.3333 8.49621 18.3333 7.83317V3.6665H11.6667V7.83317C11.6667 8.49621 11.4033 9.1321 10.9344 9.60094C10.4656 10.0698 9.82971 10.3332 9.16667 10.3332C8.50362 10.3332 7.86774 10.0698 7.3989 9.60094C6.93006 9.1321 6.66667 8.49621 6.66667 7.83317V3.6965Z" fill="black"/>
<path d="M0 16.1663C0 15.773 -7.45058e-08 15.5763 0.121667 15.4547C0.243333 15.333 0.44 15.333 0.833333 15.333H29.1667C29.56 15.333 29.7567 15.333 29.8783 15.4547C30 15.5763 30 15.773 30 16.1663V16.9997C30 23.2847 30 26.428 28.0467 28.3797C26.0933 30.3313 22.9517 30.333 16.6667 30.333H13.3333C7.04833 30.333 3.905 30.333 1.95333 28.3797C0.00166655 26.4263 0 23.2847 0 16.9997V16.1663Z" fill="black" fill-opacity="0.25"/>
<path d="M9.16602 1.1665V7.83317M20.8327 1.1665V7.83317" stroke="black" stroke-linecap="round"/>
</svg>
