<svg width="81" height="81" viewBox="0 0 81 81" fill="none" xmlns="http://www.w3.org/2000/svg">
<rect width="81" height="81" rx="16" fill="#53C2FD"/>
<path d="M40.5007 60.9167C44.291 60.9167 47.9262 59.4109 50.6064 56.7307C53.2866 54.0505 54.7923 50.4154 54.7923 46.625C54.7923 42.5417 52.7507 38.6625 48.6673 35.3958C44.584 32.1292 41.5215 27.2292 40.5007 22.125C39.4798 27.2292 36.4173 32.1292 32.334 35.3958C28.2507 38.6625 26.209 42.5417 26.209 46.625C26.209 50.4154 27.7147 54.0505 30.3949 56.7307C33.0751 59.4109 36.7103 60.9167 40.5007 60.9167Z" fill="#004A64" stroke="#004A64" stroke-width="4.08333" stroke-linecap="round" stroke-linejoin="round"/>
<path d="M44 56.2371C47.7024 53.4425 49.4764 50.3842 50.2527 47.0128" stroke="#53C2FD" stroke-width="4" stroke-linecap="round" stroke-linejoin="round"/>
</svg>
