<svg width="81" height="81" viewBox="0 0 81 81" fill="none" xmlns="http://www.w3.org/2000/svg">
<rect width="81" height="81" rx="16" fill="#53C2FD"/>
<path d="M31.6769 45.1788C31.8644 44.9689 32.1876 44.939 32.4093 45.1124C39.1475 50.3816 45.7289 47.5745 48.6232 45.1739C48.8603 44.9772 49.2187 45.0204 49.4064 45.2647C52.9699 49.907 59.5838 49.5056 63.5529 48.4415C64.019 48.3169 64.4035 48.8374 64.0909 49.2052C59.4626 54.6503 52.691 52.3122 49.4122 50.1427C49.2081 50.0076 48.9344 50.0338 48.755 50.2003C43.1157 55.4348 34.3883 52.063 32.3575 50.2901C32.1412 50.1012 31.8034 50.0465 31.5646 50.2061C24.3169 55.0524 19.1828 52.0879 16.839 49.2013C16.5376 48.83 16.9321 48.359 17.3859 48.5099C24.37 50.8316 29.5703 47.5387 31.6769 45.1788ZM31.6769 28.1798C31.8643 27.9698 32.1875 27.9391 32.4093 28.1124C39.1473 33.3816 45.7287 30.5755 48.6232 28.1749C48.8604 27.9782 49.2187 28.0213 49.4064 28.2657C52.9699 32.9079 59.5838 32.5066 63.5529 31.4425C64.0191 31.3177 64.4036 31.8373 64.0909 32.2052C59.4627 37.6505 52.6911 35.3132 49.4122 33.1436C49.2082 33.0086 48.9344 33.0338 48.755 33.2003C43.1157 38.435 34.3883 35.0631 32.3575 33.2901C32.1412 33.1015 31.8032 33.0467 31.5646 33.2061C24.3166 38.0526 19.1827 35.088 16.839 32.2013C16.5376 31.83 16.9321 31.359 17.3859 31.5099C24.37 33.8317 29.5702 30.5397 31.6769 28.1798Z" fill="#004A64"/>
</svg>
