<svg width="212" height="41" viewBox="0 0 212 41" fill="none" xmlns="http://www.w3.org/2000/svg">
<path d="M65.5336 24.901C64.9 25.3658 64.2149 25.7308 63.4746 25.9925C62.7343 26.2542 61.9699 26.385 61.1814 26.385C60.2724 26.385 59.4254 26.2369 58.6404 25.9374C57.8519 25.6378 57.1908 25.2143 56.6537 24.6669C56.1165 24.1194 55.7756 23.5203 55.6345 22.8764C55.7068 22.8764 55.8548 22.8833 56.0821 22.8936C56.3093 22.9074 56.5641 22.9108 56.8534 22.9108C57.1426 22.9108 57.3905 22.9246 57.604 22.9453C58.964 22.9935 60.3482 22.9281 61.7564 22.749C63.1647 22.57 64.4593 22.236 65.6403 21.747C66.8213 21.2581 67.7716 20.597 68.4878 19.7603C69.204 18.9237 69.5621 17.8873 69.5621 16.6443C69.5621 15.6905 69.3417 14.8056 68.901 13.993C68.4603 13.1804 67.8371 12.4849 67.0382 11.8996C66.2394 11.3142 65.3132 10.8598 64.263 10.5395C63.2129 10.2159 62.0904 10.0575 60.8956 10.0575C59.4874 10.0575 58.1514 10.302 56.8843 10.7909C55.6207 11.2798 54.4982 11.9788 53.5204 12.8843C52.5425 13.7933 51.7781 14.8779 51.2272 16.1416C50.6763 17.4087 50.4043 18.8135 50.4043 20.3663C50.4043 21.9192 50.6729 23.2379 51.21 24.4671C51.7471 25.6964 52.4977 26.7534 53.4653 27.6349C54.4328 28.5198 55.5656 29.1981 56.8671 29.6767C58.1686 30.1553 59.5838 30.3928 61.1091 30.3928C62.3487 30.3928 63.5434 30.2379 64.69 29.928C65.8366 29.6181 66.9109 29.1361 67.9128 28.4784C68.9148 27.8208 69.7997 26.991 70.5606 25.989L67.0865 23.3757C66.6802 23.9266 66.1602 24.4327 65.5301 24.8975L65.5336 24.901ZM56.1337 16.7372C56.6123 15.9384 57.2734 15.2877 58.1204 14.785C58.9675 14.2823 59.9419 14.0344 61.0402 14.0344C61.7323 14.0344 62.3486 14.148 62.8858 14.3752C63.4229 14.6025 63.8533 14.902 64.1735 15.2704C64.4972 15.6423 64.6556 16.0658 64.6556 16.541C64.6556 17.1125 64.4455 17.5843 64.0289 17.9561C63.6123 18.328 63.0614 18.6138 62.3831 18.8169C61.7013 19.0201 60.9645 19.1578 60.1622 19.2301C59.3634 19.3024 58.5681 19.3368 57.7796 19.3368C57.301 19.3368 56.8499 19.3265 56.4195 19.3024C55.9891 19.2783 55.631 19.2542 55.3453 19.2301C55.3935 18.3693 55.6551 17.5429 56.1337 16.7407V16.7372Z" fill="white"/>
<path d="M89.7914 10.3124H84.3856L80.7737 16.4068L76.7245 10.3124H70.9951L77.5681 20.208L71.1019 30.1485H76.5076L80.1126 24.0403L84.1721 30.1485H89.9015L83.2838 20.1839L89.7914 10.3124Z" fill="white"/>
<path d="M105.457 24.901C104.824 25.3658 104.139 25.7308 103.398 25.9925C102.658 26.2542 101.894 26.385 101.105 26.385C100.196 26.385 99.3492 26.2369 98.5642 25.9374C97.7757 25.6378 97.1146 25.2143 96.5775 24.6669C96.0403 24.1194 95.6995 23.5203 95.5583 22.8764C95.6306 22.8764 95.7787 22.8833 96.0059 22.8936C96.2332 22.9074 96.4879 22.9108 96.7772 22.9108C97.0664 22.9108 97.3143 22.9246 97.5278 22.9453C98.8879 22.9935 100.272 22.9281 101.68 22.749C103.089 22.57 104.383 22.236 105.564 21.747C106.745 21.2581 107.695 20.597 108.412 19.7603C109.128 18.9237 109.486 17.8873 109.486 16.6443C109.486 15.6905 109.266 14.8056 108.825 13.993C108.384 13.1804 107.761 12.4849 106.962 11.8996C106.163 11.3142 105.237 10.8598 104.187 10.5395C103.137 10.2159 102.014 10.0575 100.819 10.0575C99.4112 10.0575 98.0753 10.302 96.8082 10.7909C95.5411 11.2798 94.422 11.9788 93.4442 12.8843C92.4663 13.7933 91.702 14.8779 91.151 16.1416C90.6001 17.4087 90.3281 18.8135 90.3281 20.3663C90.3281 21.9192 90.5967 23.2379 91.1338 24.4671C91.671 25.6964 92.4216 26.7534 93.3891 27.6349C94.3566 28.5198 95.4894 29.1981 96.791 29.6767C98.0925 30.1553 99.5076 30.3928 101.033 30.3928C102.272 30.3928 103.467 30.2379 104.614 29.928C105.76 29.6181 106.835 29.1361 107.837 28.4784C108.839 27.8208 109.723 26.991 110.488 25.989L107.014 23.3757C106.607 23.9266 106.088 24.4327 105.457 24.8975V24.901ZM96.0576 16.7372C96.5362 15.9384 97.1973 15.2877 98.0443 14.785C98.8913 14.2823 99.8657 14.0344 100.964 14.0344C101.656 14.0344 102.272 14.148 102.81 14.3752C103.347 14.6025 103.777 14.902 104.097 15.2704C104.421 15.6423 104.579 16.0658 104.579 16.541C104.579 17.1125 104.369 17.5843 103.953 17.9561C103.536 18.328 102.985 18.6138 102.307 18.8169C101.625 19.0201 100.888 19.1578 100.086 19.2301C99.2873 19.3024 98.4919 19.3368 97.7034 19.3368C97.2248 19.3368 96.7737 19.3265 96.3434 19.3024C95.913 19.2783 95.5549 19.2542 95.2691 19.2301C95.3173 18.3693 95.579 17.5429 96.0576 16.7407V16.7372Z" fill="white"/>
<path d="M138.167 10.061C137.069 10.061 136.043 10.2883 135.089 10.7428C134.135 11.1973 133.323 11.8412 132.655 12.6778C131.987 13.5145 131.508 14.5268 131.222 15.7216C130.936 13.9794 130.182 12.6021 128.967 11.5864C127.748 10.5706 126.233 10.0645 124.418 10.0645C123.534 10.0645 122.676 10.2504 121.84 10.6188C121.003 10.9907 120.263 11.5072 119.619 12.1751C118.975 12.8431 118.496 13.6213 118.186 14.5027V10.3124H113.139V30.1485H118.186V19.8362C118.186 18.786 118.372 17.8495 118.741 17.0266C119.109 16.2037 119.629 15.5529 120.297 15.0743C120.965 14.5957 121.74 14.3581 122.625 14.3581C123.936 14.3581 125 14.8126 125.813 15.7182C126.626 16.6272 127.032 17.8805 127.032 19.4781V30.1485H132.045V19.8362C132.045 18.2592 132.451 16.9543 133.264 15.9144C134.077 14.8746 135.151 14.3581 136.487 14.3581C137.823 14.3581 138.863 14.8126 139.675 15.7182C140.488 16.6272 140.894 17.8805 140.894 19.4781V30.1485H145.942V18.5106C145.942 15.7905 145.243 13.7005 143.848 12.244C142.45 10.7875 140.56 10.061 138.174 10.061H138.167Z" fill="white"/>
<path d="M166.368 11.3659C165.018 10.4948 163.472 10.0575 161.73 10.0575C160.177 10.0575 158.81 10.4638 157.629 11.2764C156.448 12.089 155.604 13.2114 155.105 14.6438V10.3123H150.02V39.6033H155.105V25.7824C155.608 27.2389 156.448 28.3717 157.629 29.1843C158.81 29.9969 160.177 30.4032 161.73 30.4032C163.472 30.4032 165.018 29.9693 166.368 29.0948C167.717 28.2236 168.771 27.0185 169.535 25.4794C170.3 23.9403 170.682 22.1912 170.682 20.2321C170.682 18.2729 170.3 16.4962 169.535 14.9674C168.771 13.4387 167.714 12.2405 166.368 11.3693V11.3659ZM164.756 23.3447C164.267 24.2055 163.627 24.8597 162.842 25.3142C162.053 25.7687 161.206 25.9959 160.301 25.9959C159.395 25.9959 158.545 25.7687 157.76 25.3142C156.971 24.8597 156.334 24.2055 155.845 23.3447C155.356 22.4839 155.112 21.4475 155.112 20.2286C155.112 19.0097 155.356 17.9355 155.845 17.0781C156.334 16.2173 156.971 15.57 157.76 15.1258C158.548 14.6851 159.395 14.4647 160.301 14.4647C161.206 14.4647 162.057 14.6851 162.842 15.1258C163.63 15.5666 164.267 16.2173 164.756 17.0781C165.245 17.9389 165.49 18.9891 165.49 20.2286C165.49 21.4681 165.245 22.4839 164.756 23.3447Z" fill="white"/>
<path d="M180.313 26.0648C179.882 26.0648 179.514 25.934 179.204 25.6723C178.894 25.4106 178.739 25.0146 178.739 24.4913V3.64978H173.691V24.8115C173.691 26.1474 173.96 27.2286 174.497 28.0515C175.034 28.8744 175.726 29.4735 176.573 29.842C177.42 30.2104 178.285 30.3963 179.169 30.3963C180.244 30.3963 181.198 30.1828 182.034 29.7524L181.105 25.9202C180.891 26.0166 180.626 26.0648 180.316 26.0648H180.313Z" fill="white"/>
<path d="M189.515 10.3124H184.43V30.1485H189.515V10.3124Z" fill="white"/>
<path d="M187.009 1.50116C186.007 1.50116 185.17 1.81104 184.502 2.43081C183.834 3.05058 183.5 3.81496 183.5 4.72396C183.5 5.63296 183.834 6.39046 184.502 6.99645C185.17 7.60589 186.007 7.90889 187.009 7.90889C188.011 7.90889 188.847 7.60589 189.515 6.99645C190.183 6.38701 190.517 5.62951 190.517 4.72396C190.517 3.81841 190.183 3.05402 189.515 2.43081C188.847 1.81104 188.011 1.50116 187.009 1.50116Z" fill="white"/>
<path d="M199.47 9.27249C199.47 8.53221 199.615 7.96409 199.901 7.57157C200.187 7.17905 200.576 6.91047 201.065 6.76586C201.554 6.62124 202.122 6.55238 202.766 6.55238V2.32762C201.523 2.27941 200.39 2.37582 199.364 2.6134C198.338 2.85098 197.453 3.24006 196.713 3.77719C195.972 4.31432 195.401 5.02018 194.994 5.8913C194.588 6.76242 194.385 7.8298 194.385 9.09689V10.3158H192.092V14.4682H194.385V30.1519H199.47V14.4682H202.979V10.3158H199.47V9.27593V9.27249Z" fill="white"/>
<path d="M210.998 10.3124H205.912V30.1485H210.998V10.3124Z" fill="white"/>
<path d="M210.998 2.43436C210.33 1.81459 209.493 1.5047 208.491 1.5047C207.489 1.5047 206.652 1.81459 205.984 2.43436C205.316 3.05413 204.982 3.81851 204.982 4.72751C204.982 5.63651 205.316 6.39401 205.984 7C206.652 7.60944 207.489 7.91244 208.491 7.91244C209.493 7.91244 210.33 7.60944 210.998 7C211.666 6.39056 212 5.63306 212 4.72751C212 3.82196 211.666 3.05757 210.998 2.43436Z" fill="white"/>
<path d="M25.2081 30.6132H15.0508C15.0508 27.8105 17.3233 25.5345 20.1295 25.5345C22.9356 25.5345 25.2081 27.807 25.2081 30.6132Z" fill="white"/>
<path d="M31.6263 18.5898C31.6263 18.5898 30.9204 20.7521 30.0459 23.4171C29.1748 26.0821 28.4655 28.2444 28.4655 28.2444C25.8005 27.3733 24.3474 24.5051 25.2186 21.8401C26.0897 19.1751 28.9578 17.7221 31.6228 18.5932L31.6263 18.5898Z" fill="white"/>
<path d="M22.1233 8.74225C22.1233 8.74225 23.9619 10.0782 26.231 11.7275C28.5 13.3767 30.3386 14.7127 30.3386 14.7127C28.6894 16.9817 25.5148 17.4845 23.2457 15.8352C20.9767 14.1859 20.474 11.0113 22.1233 8.74225Z" fill="white"/>
<path d="M9.84375 14.7712C9.84375 14.7712 11.6824 13.4353 13.9549 11.7895C16.2239 10.1436 18.066 8.80768 18.066 8.80768C19.7119 11.0767 19.2092 14.2513 16.9367 15.9006C14.6676 17.5464 11.493 17.0437 9.84375 14.7712Z" fill="white"/>
<path d="M11.807 28.3235C11.807 28.3235 11.108 26.1611 10.2472 23.4892C9.38645 20.8208 8.6875 18.655 8.6875 18.655C11.356 17.7942 14.2172 19.2576 15.078 21.9295C15.9388 24.5979 14.4755 27.4592 11.8036 28.32L11.807 28.3235Z" fill="white"/>
<path d="M40.3267 14.0894V26.2541C36.9662 26.2541 34.2461 23.5305 34.2461 20.1734C34.2461 16.8163 36.9697 14.0928 40.3267 14.0928V14.0894Z" fill="white"/>
<path d="M30.138 1.64583C30.138 1.64583 32.0455 3.55335 34.4006 5.90847C36.7557 8.2636 38.6632 10.1711 38.6632 10.1711C36.3081 12.5262 32.4896 12.5262 30.1345 10.1711C27.7794 7.81599 27.7794 3.99752 30.1345 1.6424L30.138 1.64583Z" fill="white"/>
<path d="M14.0493 0.0137756C14.0493 0.0137756 16.7488 0.0103362 20.0783 0.00689306C23.4079 0.00344989 26.1073 0 26.1073 0C26.1107 3.32954 23.4148 6.03243 20.0852 6.03932C16.7557 6.04276 14.0528 3.34677 14.0459 0.0172221L14.0493 0.0137756Z" fill="white"/>
<path d="M1.59231 10.2331C1.59231 10.2331 3.49638 8.32213 5.84806 5.96356C8.19975 3.60499 10.1038 1.69403 10.1038 1.69403C12.4624 4.04571 12.4693 7.86418 10.1176 10.2228C7.76592 12.5813 3.94744 12.5882 1.58887 10.2365L1.59231 10.2331Z" fill="white"/>
<path d="M0 26.3264C0 26.3264 0 23.627 0 20.2974C0 16.9679 0 14.2684 0 14.2684C3.32954 14.2684 6.03242 16.9644 6.03242 20.2974C6.03242 23.627 3.33641 26.3299 0.00342552 26.3299L0 26.3264Z" fill="white"/>
<path d="M10.2439 38.7735C10.2439 38.7735 8.3398 36.8591 5.99156 34.497C3.64332 32.135 1.73926 30.2206 1.73926 30.2206C4.10127 27.8724 7.91629 27.8827 10.268 30.2447C12.6162 32.6067 12.6059 36.4218 10.2439 38.7735Z" fill="white"/>
<path d="M26.3861 40.3057C26.3861 40.3057 23.6867 40.3057 20.3571 40.3091C17.0276 40.3091 14.3281 40.3126 14.3281 40.3126C14.3281 36.983 17.0241 34.2802 20.3537 34.2802C23.6832 34.2802 26.3861 36.9762 26.3861 40.3057Z" fill="white"/>
<path d="M38.8048 30.0106C38.8048 30.0106 36.8939 31.9181 34.5388 34.2698C32.1836 36.625 30.2727 38.5325 30.2727 38.5325C27.921 36.1773 27.921 32.3589 30.2796 30.0037C32.6347 27.6521 36.4531 27.6521 38.8083 30.0106H38.8048Z" fill="white"/>
</svg>
