<svg width="49" height="48" viewBox="0 0 49 48" fill="none" xmlns="http://www.w3.org/2000/svg">
<rect x="0.25" width="48" height="48" rx="24" fill="#00853F"/>
<path d="M17.25 17.0006C17.2499 16.6487 17.3426 16.303 17.5189 15.9984C17.6951 15.6938 17.9486 15.4411 18.2538 15.2658C18.5589 15.0905 18.9049 14.9988 19.2568 15C19.6087 15.0012 19.9541 15.0952 20.258 15.2726L32.255 22.2706C32.5578 22.4463 32.8091 22.6983 32.9839 23.0016C33.1588 23.3049 33.2509 23.6487 33.2512 23.9987C33.2515 24.3488 33.16 24.6928 32.9857 24.9963C32.8114 25.2999 32.5605 25.5524 32.258 25.7286L20.258 32.7286C19.9541 32.906 19.6087 33 19.2568 33.0012C18.9049 33.0024 18.5589 32.9107 18.2538 32.7354C17.9486 32.5601 17.6951 32.3074 17.5189 32.0028C17.3426 31.6982 17.2499 31.3525 17.25 31.0006V17.0006Z" stroke="white" stroke-width="2" stroke-linecap="round" stroke-linejoin="round"/>
</svg>
