<svg width="24" height="24" viewBox="0 0 24 24" fill="none" xmlns="http://www.w3.org/2000/svg">
<rect width="24" height="24" rx="4" fill="white"/>
<path d="M12.6844 5.33325C13.4344 5.33525 13.8151 5.33925 14.1437 5.34859L14.2731 5.35325C14.4224 5.35859 14.5697 5.36525 14.7477 5.37325C15.4571 5.40659 15.9411 5.51859 16.3657 5.68325C16.8057 5.85259 17.1764 6.08192 17.5471 6.45192C17.8862 6.78507 18.1485 7.18823 18.3157 7.63325C18.4804 8.05792 18.5924 8.54192 18.6257 9.25192C18.6337 9.42925 18.6404 9.57659 18.6457 9.72659L18.6497 9.85592C18.6597 10.1839 18.6637 10.5646 18.6651 11.3146L18.6657 11.8119V12.6853C18.6674 13.1715 18.6623 13.6578 18.6504 14.1439L18.6464 14.2733C18.6411 14.4233 18.6344 14.5706 18.6264 14.7479C18.5931 15.4579 18.4797 15.9413 18.3157 16.3666C18.1485 16.8116 17.8862 17.2148 17.5471 17.5479C17.2139 17.887 16.8108 18.1494 16.3657 18.3166C15.9411 18.4813 15.4571 18.5933 14.7477 18.6266L14.2731 18.6466L14.1437 18.6506C13.8151 18.6599 13.4344 18.6646 12.6844 18.6659L12.1871 18.6666H11.3144C10.8279 18.6683 10.3414 18.6632 9.85508 18.6513L9.72574 18.6473C9.56748 18.6413 9.40926 18.6344 9.25108 18.6266C8.54174 18.5933 8.05774 18.4813 7.63241 18.3166C7.18763 18.1493 6.78471 17.887 6.45174 17.5479C6.11237 17.2148 5.84982 16.8117 5.68241 16.3666C5.51774 15.9419 5.40574 15.4579 5.37241 14.7479L5.35241 14.2733L5.34908 14.1439C5.33679 13.6578 5.33123 13.1715 5.33241 12.6853V11.3146C5.33057 10.8283 5.33545 10.3421 5.34708 9.85592L5.35174 9.72659C5.35708 9.57659 5.36374 9.42925 5.37174 9.25192C5.40508 8.54192 5.51708 8.05859 5.68174 7.63325C5.84954 7.18805 6.11256 6.78488 6.45241 6.45192C6.78518 6.11295 7.18787 5.85063 7.63241 5.68325C8.05774 5.51859 8.54108 5.40659 9.25108 5.37325C9.42841 5.36525 9.57641 5.35859 9.72574 5.35325L9.85508 5.34925C10.3412 5.33741 10.8275 5.3323 11.3137 5.33392L12.6844 5.33325ZM11.9991 8.66659C11.115 8.66659 10.2672 9.01777 9.64205 9.6429C9.01693 10.268 8.66574 11.1159 8.66574 11.9999C8.66574 12.884 9.01693 13.7318 9.64205 14.3569C10.2672 14.9821 11.115 15.3333 11.9991 15.3333C12.8831 15.3333 13.731 14.9821 14.3561 14.3569C14.9812 13.7318 15.3324 12.884 15.3324 11.9999C15.3324 11.1159 14.9812 10.268 14.3561 9.6429C13.731 9.01777 12.8831 8.66659 11.9991 8.66659ZM11.9991 9.99992C12.2617 9.99988 12.5218 10.0516 12.7645 10.152C13.0071 10.2525 13.2276 10.3998 13.4134 10.5855C13.5991 10.7712 13.7465 10.9916 13.847 11.2342C13.9476 11.4769 13.9994 11.7369 13.9994 11.9996C13.9995 12.2622 13.9478 12.5223 13.8473 12.765C13.7468 13.0076 13.5995 13.2281 13.4139 13.4139C13.2282 13.5996 13.0077 13.747 12.7651 13.8476C12.5225 13.9481 12.2624 13.9999 11.9997 13.9999C11.4693 13.9999 10.9606 13.7892 10.5855 13.4141C10.2105 13.0391 9.99974 12.5304 9.99974 11.9999C9.99974 11.4695 10.2105 10.9608 10.5855 10.5857C10.9606 10.2106 11.4693 9.99992 11.9997 9.99992M15.4997 7.66659C15.2787 7.66659 15.0668 7.75438 14.9105 7.91066C14.7542 8.06694 14.6664 8.2789 14.6664 8.49992C14.6664 8.72093 14.7542 8.93289 14.9105 9.08917C15.0668 9.24545 15.2787 9.33325 15.4997 9.33325C15.7208 9.33325 15.9327 9.24545 16.089 9.08917C16.2453 8.93289 16.3331 8.72093 16.3331 8.49992C16.3331 8.2789 16.2453 8.06694 16.089 7.91066C15.9327 7.75438 15.7208 7.66659 15.4997 7.66659Z" fill="#004A64"/>
</svg>
