<svg width="14" height="14" viewBox="0 0 14 14" fill="none" xmlns="http://www.w3.org/2000/svg">
<path d="M7.71962 0C8.50708 0.0020999 8.90676 0.00629969 9.25185 0.0160992L9.38764 0.020999C9.54443 0.0265987 9.69912 0.0335983 9.88602 0.0419979C10.6308 0.0769962 11.139 0.194591 11.5848 0.367482C12.0468 0.545273 12.436 0.786062 12.8252 1.17454C13.1812 1.52434 13.4567 1.94764 13.6322 2.41488C13.8051 2.86076 13.9227 3.36894 13.9577 4.1144C13.9661 4.30059 13.9731 4.45528 13.9787 4.61277L13.9829 4.74857C13.9934 5.09295 13.9976 5.49263 13.999 6.28009L13.9997 6.80227V7.71922C14.0014 8.22978 13.9961 8.74034 13.9836 9.25075L13.9794 9.38654C13.9738 9.54403 13.9668 9.69873 13.9584 9.88492C13.9234 10.6304 13.8044 11.1379 13.6322 11.5844C13.4567 12.0517 13.1812 12.475 12.8252 12.8248C12.4754 13.1808 12.0521 13.4563 11.5848 13.6318C11.139 13.8047 10.6308 13.9223 9.88602 13.9573L9.38764 13.9783L9.25185 13.9825C8.90676 13.9923 8.50708 13.9972 7.71962 13.9986L7.19745 13.9993H6.28119C5.7704 14.0011 5.25961 13.9958 4.74897 13.9832L4.61317 13.979C4.44701 13.9727 4.28088 13.9655 4.1148 13.9573C3.37003 13.9223 2.86186 13.8047 2.41528 13.6318C1.94828 13.4562 1.52523 13.1808 1.17564 12.8248C0.81932 12.475 0.543648 12.0517 0.36788 11.5844C0.194989 11.1386 0.0773943 10.6304 0.042396 9.88492L0.0213971 9.38654L0.0178974 9.25075C0.00499421 8.74035 -0.000839465 8.22979 0.000398138 7.71922V6.28009C-0.00153929 5.76954 0.00359433 5.25898 0.0157974 4.74857L0.0206972 4.61277C0.0262969 4.45528 0.0332965 4.30059 0.0416961 4.1144C0.0766944 3.36894 0.194289 2.86146 0.36718 2.41488C0.543358 1.94744 0.819514 1.52413 1.17634 1.17454C1.52573 0.818644 1.94853 0.543225 2.41528 0.367482C2.86186 0.194591 3.36933 0.0769962 4.1148 0.0419979C4.30099 0.0335983 4.45638 0.0265987 4.61317 0.020999L4.74897 0.0167991C5.25938 0.00436268 5.76993 -0.00100424 6.28049 0.000699915L7.71962 0ZM7.00006 3.49983C6.07184 3.49983 5.18165 3.86856 4.5253 4.52491C3.86896 5.18125 3.50023 6.07145 3.50023 6.99966C3.50023 7.92787 3.86896 8.81807 4.5253 9.47441C5.18165 10.1308 6.07184 10.4995 7.00006 10.4995C7.92827 10.4995 8.81846 10.1308 9.47481 9.47441C10.1312 8.81807 10.4999 7.92787 10.4999 6.99966C10.4999 6.07145 10.1312 5.18125 9.47481 4.52491C8.81846 3.86856 7.92827 3.49983 7.00006 3.49983ZM7.00006 4.89976C7.27582 4.89972 7.54889 4.95398 7.80368 5.05947C8.05847 5.16496 8.28998 5.3196 8.48501 5.51456C8.68004 5.70952 8.83475 5.94099 8.94032 6.19574C9.0459 6.45049 9.10026 6.72355 9.1003 6.99931C9.10035 7.27507 9.04608 7.54814 8.94059 7.80293C8.83511 8.05772 8.68047 8.28924 8.48551 8.48426C8.29054 8.67929 8.05908 8.834 7.80433 8.93958C7.54957 9.04515 7.27652 9.09951 7.00076 9.09956C6.44383 9.09956 5.90971 8.87832 5.5159 8.48451C5.1221 8.0907 4.90086 7.55659 4.90086 6.99966C4.90086 6.44273 5.1221 5.90861 5.5159 5.51481C5.90971 5.121 6.44383 4.89976 7.00076 4.89976M10.6756 2.44988C10.4435 2.44988 10.221 2.54206 10.0569 2.70615C9.8928 2.87024 9.80062 3.09278 9.80062 3.32484C9.80062 3.55689 9.8928 3.77944 10.0569 3.94353C10.221 4.10761 10.4435 4.19979 10.6756 4.19979C10.9076 4.19979 11.1302 4.10761 11.2943 3.94353C11.4584 3.77944 11.5505 3.55689 11.5505 3.32484C11.5505 3.09278 11.4584 2.87024 11.2943 2.70615C11.1302 2.54206 10.9076 2.44988 10.6756 2.44988Z" fill="white"/>
</svg>
