<svg width="24" height="24" viewBox="0 0 24 24" fill="none" xmlns="http://www.w3.org/2000/svg">
<rect width="24" height="24" rx="4" fill="white"/>
<path d="M8.6276 7.33327C8.62743 7.68689 8.48678 8.02596 8.23661 8.27588C7.98643 8.52581 7.64723 8.66611 7.2936 8.66593C6.93998 8.66576 6.60091 8.52511 6.35099 8.27494C6.10107 8.02477 5.96076 7.68556 5.96094 7.33193C5.96111 6.97831 6.10176 6.63924 6.35193 6.38932C6.60211 6.1394 6.94132 5.99909 7.29494 5.99927C7.64856 5.99944 7.98763 6.14009 8.23755 6.39026C8.48747 6.64044 8.62778 6.97965 8.6276 7.33327ZM8.6676 9.65327H6.00094V17.9999H8.6676V9.65327ZM12.8809 9.65327H10.2276V17.9999H12.8543V13.6199C12.8543 11.1799 16.0343 10.9533 16.0343 13.6199V17.9999H18.6676V12.7133C18.6676 8.59993 13.9609 8.75327 12.8543 10.7733L12.8809 9.65327Z" fill="#004A64"/>
</svg>
