<svg width="13" height="12" viewBox="0 0 13 12" fill="none" xmlns="http://www.w3.org/2000/svg">
<path d="M2.66656 1.33395C2.66638 1.68755 2.52574 2.02661 2.27558 2.27652C2.02542 2.52643 1.68622 2.66674 1.33261 2.66656C0.979005 2.66638 0.63995 2.52574 0.390037 2.27558C0.140124 2.02542 -0.000176637 1.68622 1.66901e-07 1.33261C0.000176971 0.979005 0.140817 0.63995 0.39098 0.390037C0.641143 0.140124 0.980338 -0.000176637 1.33395 1.66901e-07C1.68755 0.000176971 2.02661 0.140817 2.27652 0.39098C2.52643 0.641143 2.66674 0.980338 2.66656 1.33395ZM2.70656 3.65385H0.0399985V12.0002H2.70656V3.65385ZM6.91972 3.65385H4.26649V12.0002H6.89305V7.62036C6.89305 5.18046 10.0729 4.9538 10.0729 7.62036V12.0002H12.7061V6.71373C12.7061 2.60056 7.99967 2.75389 6.89305 4.77381L6.91972 3.65385Z" fill="white"/>
</svg>
