<svg width="81" height="81" viewBox="0 0 81 81" fill="none" xmlns="http://www.w3.org/2000/svg">
<rect width="81" height="81" rx="16" fill="#53C2FD"/>
<g clip-path="url(#clip0_1859_2101)">
<path d="M29.2656 21.6465C33.4133 33.1731 42.2588 56.6027 44.458 58.1074L33.124 54.8281C31.9505 52.4489 29.3045 45.8673 28.1084 38.5752C27.0956 42.2244 24.0029 48 22.5029 51L16.0029 49.1367C20.4239 40.8895 29.2656 23.8457 29.2656 21.6465ZM32.0029 21.501C42.266 24.7419 49.8594 23.6241 52.8496 22.6113C53.2354 26.3925 61.1125 43.2214 65.0029 51.1631C61.1831 54.7511 52.472 57.0847 48.0029 58.001C45.7651 56.9207 36.3274 33.317 32.0029 21.501Z" fill="#004A64"/>
</g>
<defs>
<clipPath id="clip0_1859_2101">
<rect width="49" height="49" fill="white" transform="translate(16 16)"/>
</clipPath>
</defs>
</svg>
