<svg width="20" height="20" viewBox="0 0 20 20" fill="none" xmlns="http://www.w3.org/2000/svg">
<path d="M6.09254 8.16718C5.96272 8.17427 5.83348 8.14532 5.71909 8.08352C5.6047 8.02173 5.50963 7.92951 5.44439 7.81706C5.37915 7.7046 5.34627 7.5763 5.34941 7.44632C5.35254 7.31635 5.39155 7.18978 5.46214 7.0806L9.21434 1.11796C9.2733 1.01179 9.35869 0.922652 9.46223 0.859187C9.56578 0.795722 9.68396 0.760084 9.80533 0.755727C9.92669 0.751371 10.0471 0.778444 10.155 0.834323C10.2628 0.890201 10.3543 0.972989 10.4208 1.07466L14.1488 7.05945C14.2223 7.16498 14.2655 7.2886 14.2738 7.41692C14.282 7.54525 14.255 7.67339 14.1957 7.78748C14.1364 7.90157 14.047 7.99726 13.9372 8.06419C13.8274 8.13112 13.7014 8.16673 13.5728 8.16718H6.09254Z" stroke="white" stroke-width="1.5" stroke-linecap="round" stroke-linejoin="round"/>
<path d="M6.79746 12.1953H1.76231C1.20614 12.1953 0.755274 12.6462 0.755274 13.2023V18.2375C0.755274 18.7937 1.20614 19.2445 1.76231 19.2445H6.79746C7.35363 19.2445 7.80449 18.7937 7.80449 18.2375V13.2023C7.80449 12.6462 7.35363 12.1953 6.79746 12.1953Z" stroke="white" stroke-width="1.5" stroke-linecap="round" stroke-linejoin="round"/>
<path d="M15.3572 19.2445C17.3038 19.2445 18.8818 17.6665 18.8818 15.7199C18.8818 13.7733 17.3038 12.1953 15.3572 12.1953C13.4106 12.1953 11.8326 13.7733 11.8326 15.7199C11.8326 17.6665 13.4106 19.2445 15.3572 19.2445Z" stroke="white" stroke-width="1.5" stroke-linecap="round" stroke-linejoin="round"/>
</svg>
