<svg width="81" height="81" viewBox="0 0 81 81" fill="none" xmlns="http://www.w3.org/2000/svg">
<rect width="81" height="81" rx="16" fill="#53C2FD"/>
<path d="M40.5029 33C49.6156 33 57.0029 30.5376 57.0029 27.5C57.0029 24.4624 49.6156 22 40.5029 22C31.3902 22 24.0029 24.4624 24.0029 27.5C24.0029 30.5376 31.3902 33 40.5029 33Z" fill="#004A64" stroke="#004A64" stroke-width="4.08333" stroke-linecap="round" stroke-linejoin="round"/>
<path d="M24.0029 27V53.3529C24.0029 54.8506 25.7413 56.287 28.8357 57.346C31.93 58.405 36.1269 59 40.5029 59C44.879 59 49.0758 58.405 52.1702 57.346C55.2645 56.287 57.0029 54.8506 57.0029 53.3529V27" fill="#004A64"/>
<path d="M24.0029 27V53.3529C24.0029 54.8506 25.7413 56.287 28.8357 57.346C31.93 58.405 36.1269 59 40.5029 59C44.879 59 49.0758 58.405 52.1702 57.346C55.2645 56.287 57.0029 54.8506 57.0029 53.3529V27" stroke="#004A64" stroke-width="4.08333" stroke-linecap="round" stroke-linejoin="round"/>
<path d="M19.0029 36C19.0029 37.5995 25.0592 41.1026 28.2401 42.2336C31.421 43.3646 35.7352 44 40.2337 44C44.7322 44 49.0464 43.3646 52.2273 42.2336C55.4082 41.1026 61.0029 38.0918 61.0029 36.4923" stroke="#53C2FD" stroke-width="4.08333" stroke-linecap="round" stroke-linejoin="round"/>
</svg>
