<svg width="24" height="24" viewBox="0 0 24 24" fill="none" xmlns="http://www.w3.org/2000/svg">
<path d="M12 13V21" stroke="#111111" stroke-width="2" stroke-linecap="round" stroke-linejoin="round"/>
<path d="M4.00132 14.899C3.25836 14.1399 2.69788 13.2217 2.36235 12.214C2.02682 11.2062 1.92502 10.1353 2.06468 9.08232C2.20433 8.02938 2.58177 7.02202 3.16841 6.13655C3.75505 5.25109 4.5355 4.51074 5.45065 3.97157C6.3658 3.43241 7.39164 3.10857 8.45048 3.0246C9.50932 2.94062 10.5734 3.09871 11.5621 3.48688C12.5508 3.87505 13.4382 4.48313 14.157 5.26506C14.8759 6.04698 15.4074 6.98225 15.7113 8.00002H17.5013C18.4668 7.99991 19.4068 8.31034 20.1823 8.88546C20.9578 9.46058 21.5278 10.2699 21.8081 11.1938C22.0883 12.1178 22.064 13.1074 21.7386 14.0164C21.4133 14.9254 20.8042 15.7057 20.0013 16.242" stroke="#111111" stroke-width="2" stroke-linecap="round" stroke-linejoin="round"/>
<path d="M8 17L12 13L16 17" stroke="#111111" stroke-width="2" stroke-linecap="round" stroke-linejoin="round"/>
</svg>
