<svg width="2268" height="196" viewBox="0 0 2268 196" fill="none" xmlns="http://www.w3.org/2000/svg">
<g clip-path="url(#clip0_2835_3357)">
<path d="M1904.74 50.0557C1994.05 20.4939 2233.16 -27.0061 2475.17 19.4893C2634.27 50.0556 2744.26 76.145 3052.22 97.8428C3123.86 104.588 3311.45 104.473 3488.69 50.0557C3578 22.79 3857.5 35.4997 4118 153.81V195.999H1655L-1850 196V153.81C-1589.5 35.4998 -1310 22.79 -1220.69 50.0557C-1043.45 104.473 -855.862 104.588 -784.22 97.8428C-476.26 76.145 -366.27 50.0556 -207.17 19.4893C34.8398 -27.006 273.95 20.4939 363.26 50.0557C573.47 115.494 733.78 106.337 788 95C797.299 93.0556 806.343 91.1938 815.14 89.4111C864.009 78.1328 918.862 68.0011 977.934 60.8428C1042.86 51.8271 1083.59 50.0557 1114.75 50.0557C1121.18 50.0557 1127.59 50.1035 1133.98 50.1924C1140.37 50.1031 1146.8 50.0557 1153.25 50.0557C1187.12 50.0557 1232.1 51.9522 1307.24 63.0225C1353.48 69.1534 1396.95 77.0471 1436.76 85.7881C1450.37 88.4868 1464.61 91.3861 1479.5 94.5C1533.72 105.837 1694.53 115.494 1904.74 50.0557Z" fill="#004A64"/>
</g>
<defs>
<clipPath id="clip0_2835_3357">
<rect width="2268" height="196" fill="white"/>
</clipPath>
</defs>
</svg>
