<svg width="24" height="24" viewBox="0 0 24 24" fill="none" xmlns="http://www.w3.org/2000/svg">
<rect width="24" height="24" rx="4" fill="white"/>
<path d="M12.2909 16.6533L9.58275 16.6027C8.70592 16.585 7.8269 16.6202 6.96726 16.4375C5.65955 16.1645 5.56691 14.8259 5.46997 13.7031C5.33639 12.1245 5.3881 10.5173 5.64018 8.95192C5.78248 8.07358 6.3425 7.54947 7.20856 7.49243C10.1321 7.28545 13.0751 7.30998 15.9922 7.40654C16.3003 7.4154 16.6105 7.46378 16.9143 7.51885C18.4138 7.78747 18.4504 9.3044 18.5476 10.5814C18.6445 11.8715 18.6036 13.1683 18.4183 14.4497C18.2697 15.5106 17.9853 16.4003 16.785 16.4862C15.2812 16.5985 13.8118 16.6889 12.3038 16.6601C12.3038 16.6533 12.2952 16.6533 12.2909 16.6533ZM10.6988 13.9673C11.832 13.3024 12.9437 12.6485 14.0705 11.988C12.9351 11.3231 11.8255 10.6692 10.6988 10.0087V13.9673Z" fill="#004A64"/>
</svg>
