<svg width="14" height="10" viewBox="0 0 14 10" fill="none" xmlns="http://www.w3.org/2000/svg">
<path d="M7.31059 9.88417L4.43817 9.83049C3.50814 9.81178 2.5758 9.84912 1.664 9.65531C0.276956 9.36575 0.178693 7.94593 0.0758705 6.75498C-0.065808 5.08065 -0.01096 3.37593 0.256406 1.71558C0.407342 0.783948 1.00134 0.228036 1.91994 0.167542C5.02087 -0.0519984 8.14243 -0.0259805 11.2365 0.0764431C11.5633 0.0858326 11.8923 0.137152 12.2145 0.195567C13.805 0.480475 13.8438 2.08944 13.9469 3.44388C14.0497 4.8123 14.0063 6.18775 13.8098 7.54685C13.6521 8.67215 13.3504 9.61582 12.0774 9.70692C10.4823 9.82604 8.92384 9.92195 7.32427 9.89141C7.32434 9.88417 7.31515 9.88417 7.31059 9.88417ZM5.62188 7.03523C6.82391 6.32995 8.003 5.63642 9.19815 4.93587C7.99388 4.23059 6.81703 3.53706 5.62188 2.83651V7.03523Z" fill="white"/>
</svg>
